<svg height="171.44121" width="375" xmlns="http://www.w3.org/2000/svg"><g fill="none" stroke="#000"><path d="m.5 85.94161h374m-374 0v-85m0 85c4.02151-10.33685 8.04301-20.67 12.06452-30.3272 4.0215-9.6572 8.04301-18.62884 12.06451-26.33519 4.02151-7.70636 8.04301-14.13554 12.06452-18.87666 4.0215-4.74111 8.04301-7.78156 12.06451-8.93335 4.02151-1.1518 8.04302-.40329 12.06452 2.18584 4.02151 2.58914 8.04301 7.02808 12.06452 13.01733 4.0215 5.98925 8.04301 13.53432 12.06451 22.13532 4.02151 8.601 8.04301 18.25903 12.06452 28.33962 4.0215 10.08059 8.04301 20.58027 12.06452 30.81353 4.0215 10.23325 8.04301 20.19251 12.06451 29.23142 4.02151 9.03891 8.04301 17.14679 12.06452 23.80155 4.0215 6.65476 8.04301 11.84401 12.06451 15.23865 4.02151 3.39463 8.04301 4.98219 12.06452 4.66986s8.04301-2.53544 12.06452-6.51362c4.0215-3.97818 8.04301-9.71932 12.06451-16.8397 4.02151-7.12039 8.04301-15.62385 12.06452-24.94917 4.0215-9.32531 8.04301-19.47178 12.06451-29.77453 4.02151-10.30274 8.04301-20.75662 12.06452-30.68064 4.02151-9.92401 8.04301-19.30925 12.06452-27.54822 4.0215-8.23897 8.04301-15.32017 12.06451-20.78959 4.02151-5.46943 8.04301-9.31448 12.06452-11.29441 4.0215-1.97993 8.04301-2.08272 12.06451-.31253 4.02151 1.77019 8.04302 5.4232 12.06452 10.71049 4.02151 5.28729 8.04301 12.21526 12.06452 20.32368 4.0215 8.10842 8.04301 17.3994 12.06451 27.26163 4.02151 9.86224 8.04301 20.29325 12.06452 30.61111 4.0215 10.31787 8.04301 20.51586 12.06452 29.9312 4.0215 9.41535 8.04301 18.03795 12.06451 25.31142 4.02151 7.27347 8.04301 13.18568 12.06452 17.35986 4.0215 4.17418 8.04301 6.59776 12.06451 7.1232 4.02151.52544 8.04301-.85862 12.06452-4.05109" title="sin(x)"/><path d="m1.07732 85.35281h10.42982v-26.87005h10.07627v-23.33453h10.07628v-17.85444h9.72271v-11.66727h10.25305v-5.12652h9.8995v3.88909h10.07627v10.6066h9.89949v16.44023h10.25305v22.27387"/><path d="m91.76376 53.35623h9.72272v24.39519h10.07627v26.16295h10.07627v24.2184"/><path d="m121 127.94161h10v18.5h11v16h9.5v7h10 10v-8h10.5v-15h9.5v-19h10v-23.5h11v-28h9.5v-22.5h9.5v-22.5h10v-16h10.5v-12.5h9.5v-1.5h9v5h11v12.5h10.5v18.5h9.5v20.5h10.5v28h9.5v24.5h10.5v23.5h10v19h9.5v11.5h10v6.5h11.5l-.69199-2.58253"/></g></svg>